<?xml version="1.0" standalone="no"?>
<!DOCTYPE svg PUBLIC "-//W3C//DTD SVG 20010904//EN"
 "http://www.w3.org/TR/2001/REC-SVG-20010904/DTD/svg10.dtd">
<svg version="1.0" xmlns="http://www.w3.org/2000/svg"
 width="736.000000pt" height="736.000000pt" viewBox="0 0 736.000000 736.000000"
 preserveAspectRatio="xMidYMid meet">

<g transform="translate(0.000000,736.000000) scale(0.100000,-0.100000)"
fill="#000000" stroke="none">
<path d="M3634 6205 c-3 -14 -3 -40 0 -59 5 -28 1 -43 -22 -80 -16 -25 -35
-67 -42 -92 -23 -80 12 -164 98 -240 l35 -32 -229 -5 c-335 -7 -405 -26 -431
-117 -8 -25 -16 -101 -20 -170 -5 -114 -4 -130 15 -173 53 -119 175 -95 448
86 247 164 308 230 287 310 l-11 39 57 -7 c247 -29 354 -54 372 -87 11 -20 13
-321 4 -483 -3 -38 -5 -83 -5 -99 l0 -29 -137 7 c-137 7 -540 -4 -868 -25
-190 -12 -225 -22 -263 -79 -23 -34 -24 -40 -18 -165 3 -72 11 -147 17 -168
27 -97 120 -145 257 -133 149 14 470 115 647 204 171 85 330 217 365 301 l13
34 66 -6 c110 -10 128 -52 118 -266 -6 -132 -32 -239 -68 -277 -42 -45 -164
-98 -233 -101 -33 -2 -279 -10 -546 -18 -614 -19 -744 -25 -759 -35 -44 -27
34 -79 160 -107 114 -26 415 -23 584 5 218 37 385 71 500 103 108 30 114 31
275 26 221 -7 282 -27 215 -71 -50 -33 -147 -46 -405 -56 -299 -12 -326 -14
-367 -40 -31 -18 -63 -84 -48 -98 4 -4 9 -2 11 3 21 56 42 80 79 91 22 6 148
14 280 18 260 8 387 24 450 59 51 28 60 67 20 85 -39 18 -147 32 -250 32 l-90
0 55 31 c30 16 67 42 82 56 49 47 81 188 81 353 -1 167 -28 214 -130 226 -28
4 -55 9 -60 13 -5 3 -5 115 -1 256 11 368 8 379 -94 410 -58 18 -293 55 -346
55 -41 0 -109 54 -157 125 -55 83 -56 136 0 231 l27 45 39 -55 c52 -72 69
-115 69 -171 0 -48 14 -61 24 -21 13 51 -10 112 -77 207 -38 54 -39 58 -27 93
6 21 9 48 6 62 -9 33 -43 32 -52 -1z m36 -12 c0 -10 -5 -25 -10 -33 -7 -11
-10 -7 -10 18 0 17 5 32 10 32 6 0 10 -8 10 -17z m40 -522 c32 -9 53 -51 44
-88 -11 -44 -100 -122 -256 -226 -162 -107 -219 -138 -301 -162 -54 -16 -59
-16 -94 2 -61 30 -75 112 -53 303 15 131 38 150 201 168 99 11 423 13 459 3z
m462 -740 c-16 -42 -74 -112 -136 -164 -196 -161 -658 -336 -896 -340 -72 -1
-91 2 -126 22 -65 36 -76 65 -88 223 -11 153 -3 190 49 224 48 32 354 50 867
53 329 1 337 1 330 -18z m-182 -677 c-69 -22 -310 -70 -470 -95 -168 -25 -420
-31 -539 -11 -81 14 -182 50 -188 68 -3 8 41 14 149 18 318 13 916 33 1003 34
l90 0 -45 -14z"/>
<path d="M5100 4154 c-75 -43 -170 -126 -336 -296 -233 -239 -552 -603 -784
-895 -105 -133 -154 -172 -309 -249 -190 -94 -369 -137 -411 -99 -11 10 -20
30 -20 44 0 33 37 113 84 182 62 93 42 114 -49 53 l-54 -35 -20 20 c-23 23
-73 27 -131 11 -19 -5 -93 -42 -165 -81 -324 -177 -638 -282 -885 -295 -94 -5
-108 -3 -137 15 -145 92 -26 386 282 696 178 179 323 279 488 336 194 67 337
41 337 -60 0 -105 -143 -284 -323 -404 -86 -58 -97 -70 -77 -82 14 -9 165 94
245 167 112 103 195 241 195 325 0 41 -33 87 -76 108 -50 24 -165 24 -254 1
-304 -79 -699 -436 -869 -786 -42 -87 -46 -101 -46 -172 0 -62 4 -82 21 -104
53 -72 107 -88 254 -73 176 17 382 74 597 165 57 24 105 44 108 44 4 0 -1 -10
-9 -22 -19 -27 -21 -69 -4 -86 19 -19 79 -14 133 12 53 25 218 132 324 209 35
26 65 46 67 44 2 -1 -13 -33 -32 -71 -56 -112 -44 -193 32 -212 66 -17 206 23
393 112 63 30 115 53 117 52 1 -2 -18 -30 -43 -63 -155 -206 -288 -409 -277
-426 7 -12 56 -8 73 5 8 6 68 78 135 161 213 265 434 458 552 483 84 18 98 -8
35 -68 -49 -47 -130 -86 -221 -106 -38 -9 -74 -22 -80 -29 -19 -22 39 -115 95
-154 48 -32 53 -33 120 -28 41 3 107 19 160 37 86 31 281 123 373 177 47 28
60 26 43 -5 -6 -12 -11 -39 -11 -60 0 -32 6 -45 29 -65 57 -48 163 -42 349 19
138 46 402 185 402 213 0 23 -22 19 -72 -15 -172 -117 -489 -227 -603 -210
-63 10 -81 38 -62 94 20 59 57 102 82 95 93 -27 209 38 185 103 -18 48 -90 33
-198 -39 -145 -96 -415 -235 -542 -278 -36 -12 -95 -24 -131 -26 -76 -6 -114
9 -152 59 -43 59 -42 64 20 77 79 16 191 72 241 122 52 52 61 82 36 110 -16
18 -28 20 -70 17 -140 -12 -331 -164 -580 -464 -124 -149 -159 -187 -138 -151
28 47 105 156 216 305 129 172 145 188 289 287 107 73 348 267 469 377 115
104 358 348 440 443 137 157 260 345 260 398 0 20 -34 57 -52 57 -7 0 -33 -12
-58 -26z m70 -34 c0 -51 -95 -194 -242 -365 -122 -141 -418 -431 -574 -561
-138 -116 -364 -288 -369 -282 -6 5 288 357 466 559 420 477 719 746 719 649z
m-155 -1259 c0 -19 -64 -51 -102 -51 -47 0 -41 14 19 44 56 28 83 30 83 7z
m-1840 -7 c15 -15 9 -21 -72 -81 -117 -86 -212 -142 -269 -159 -169 -51 45
170 229 237 65 23 91 24 112 3z"/>
<path d="M3687 3970 c-3 -8 -16 -77 -28 -153 -20 -134 -23 -279 -4 -333 6 -20
3 -21 -112 -27 -199 -9 -428 -67 -421 -106 7 -38 53 -45 285 -46 123 0 222 3
220 8 -1 4 -99 9 -217 11 -209 3 -260 9 -260 27 0 27 232 78 393 86 l128 6 29
-35 c56 -67 183 -99 400 -97 154 0 211 28 165 79 -32 35 -233 67 -445 71 -58
0 -113 3 -122 6 -42 11 -49 149 -17 345 19 119 22 196 6 158z m353 -545 c151
-17 220 -38 220 -66 0 -15 -75 -29 -160 -29 -192 0 -329 31 -381 86 l-22 24
109 0 c60 0 165 -7 234 -15z"/>
</g>
</svg>
